HIERARCHY
ROOT Hips
{
	OFFSET 0.00000 0.00000 0.00000
	CHANNELS 6 Xposition Yposition Zposition Zrotation Yrotation Xrotation 
	JOINT LHipJoint
	{
		OFFSET 0 0 0
		CHANNELS 3 Zrotation Yrotation Xrotation
		JOINT LeftUpLeg
		{
			OFFSET 1.44361 -1.63093 0.70831
			CHANNELS 3 Zrotation Yrotation Xrotation
			JOINT LeftLeg
			{
				OFFSET 2.20103 -6.04728 0.00000
				CHANNELS 3 Zrotation Yrotation Xrotation
				JOINT LeftFoot
				{
					OFFSET 2.54154 -6.98283 0.00000
					CHANNELS 3 Zrotation Yrotation Xrotation
					JOINT LeftToeBase
					{
						OFFSET 0.05971 -0.16406 1.77582
						CHANNELS 3 Zrotation Yrotation Xrotation
						End Site
						{
							OFFSET 0.00000 -0.00000 0.90832
						}
					}
				}
			}
		}
	}
	JOINT RHipJoint
	{
		OFFSET 0 0 0
		CHANNELS 3 Zrotation Yrotation Xrotation
		JOINT RightUpLeg
		{
			OFFSET -1.65838 -1.63093 0.70830
			CHANNELS 3 Zrotation Yrotation Xrotation
			JOINT RightLeg
			{
				OFFSET -2.26926 -6.23475 0.00000
				CHANNELS 3 Zrotation Yrotation Xrotation
				JOINT RightFoot
				{
					OFFSET -2.34808 -6.45129 0.00000
					CHANNELS 3 Zrotation Yrotation Xrotation
					JOINT RightToeBase
					{
						OFFSET -0.18633 -0.51195 1.68539
						CHANNELS 3 Zrotation Yrotation Xrotation
						End Site
						{
							OFFSET -0.00000 -0.00000 0.88927
						}
					}
				}
			}
		}
	}
	JOINT LowerBack
	{
		OFFSET 0 0 0
		CHANNELS 3 Zrotation Yrotation Xrotation
		JOINT Spine
		{
			OFFSET -0.10393 2.01691 0.06920
			CHANNELS 3 Zrotation Yrotation Xrotation
			JOINT Spine1
			{
				OFFSET 0.04092 2.01302 -0.05283
				CHANNELS 3 Zrotation Yrotation Xrotation
				JOINT Neck
				{
					OFFSET 0 0 0
					CHANNELS 3 Zrotation Yrotation Xrotation
					JOINT Neck1
					{
						OFFSET -0.02870 1.58978 -0.03113
						CHANNELS 3 Zrotation Yrotation Xrotation
						JOINT Head
						{
							OFFSET 0.11532 1.54326 -0.29195
							CHANNELS 3 Zrotation Yrotation Xrotation
							End Site
							{
								OFFSET 0.04056 1.59999 -0.09535
							}
						}
					}
				}
				JOINT LeftShoulder
				{
					OFFSET 0 0 0
					CHANNELS 3 Zrotation Yrotation Xrotation
					JOINT LeftArm
					{
						OFFSET 3.30641 1.15764 0.01104
						CHANNELS 3 Zrotation Yrotation Xrotation
						JOINT LeftForeArm
						{
							OFFSET 4.63208 -0.00000 0.00000
							CHANNELS 3 Zrotation Yrotation Xrotation
							JOINT LeftHand
							{
								OFFSET 3.41924 -0.00000 -0.00000
								CHANNELS 3 Zrotation Yrotation Xrotation
								JOINT LeftFingerBase
								{
									OFFSET 0 0 0
									CHANNELS 3 Zrotation Yrotation Xrotation
									JOINT LeftHandIndex1
									{
										OFFSET 0.62537 -0.00000 -0.00000
										CHANNELS 3 Zrotation Yrotation Xrotation
										End Site
										{
											OFFSET 0.50419 -0.00000 -0.00000
										}
									}
								}
								JOINT LThumb
								{
									OFFSET 0 0 0
									CHANNELS 3 Zrotation Yrotation Xrotation
									End Site
									{
										OFFSET 0.51189 -0.00000 0.51189
									}
								}
							}
						}
					}
				}
				JOINT RightShoulder
				{
					OFFSET 0 0 0
					CHANNELS 3 Zrotation Yrotation Xrotation
					JOINT RightArm
					{
						OFFSET -3.78081 1.02180 -0.16609
						CHANNELS 3 Zrotation Yrotation Xrotation
						JOINT RightForeArm
						{
							OFFSET -4.40640 -0.00000 -0.00000
							CHANNELS 3 Zrotation Yrotation Xrotation
							JOINT RightHand
							{
								OFFSET -3.44675 -0.00000 0.00000
								CHANNELS 3 Zrotation Yrotation Xrotation
								JOINT RightFingerBase
								{
									OFFSET 0 0 0
									CHANNELS 3 Zrotation Yrotation Xrotation
									JOINT RightHandIndex1
									{
										OFFSET -0.51367 -0.00000 -0.00000
										CHANNELS 3 Zrotation Yrotation Xrotation
										End Site
										{
											OFFSET -0.41414 -0.00000 -0.00000
										}
									}
								}
								JOINT RThumb
								{
									OFFSET 0 0 0
									CHANNELS 3 Zrotation Yrotation Xrotation
									End Site
									{
										OFFSET -0.42046 -0.00000 0.42046
									}
								}
							}
						}
					}
				}
			}
		}
	}
}
MOTION
Frames: 12
Frame Time: 0.117647
0.00 0.00 0.00 0 0 0 0 0 0 -21 0 0 0 0 0 0 0 0 0 0 0 0 0 0 21 0 0 0 0 0 0 0 0 0 0 0 0 0 0 0 0 0 0 0 0 0 0 -16 0 0 21 0 0 11 0 0 0 -8 0 0 0 0 0 0 0 0 0 0 0 0 0 0 0 0 0 0 0 0 8 0 0 0 0 0 0 0 0 0 0 0 0 0 0 0 0 0
0.00 0.00 0.00 179.7860 -0.3454 -167.2190 0.0000 0.0000 0.0000 -22.2371 -11.2568 -8.0248 0.6155 5.0211 13.9689 1.3782 -5.7258 -21.0524 7.9683 -16.0959 -52.4484 0.0000 0.0000 0.0000 18.0120 11.0168 -13.3449 -1.6921 -8.1929 23.3016 -1.5946 0.0580 -23.8810 -2.8651 10.4734 -30.5238 -7.1901 1.1158 -8.3860 1.6489 2.0687 -0.1364 6.0288 0.8467 4.2526 -3.6422 -0.4661 -8.0785 7.7094 -4.5998 27.6998 2.7046 -2.5238 10.4021 0.0000 -0.0000 0.0000 -90.3060 -0.1065 26.7057 9.9768 -16.7032 -1.4683 -0.0000 -0.0000 31.6144 28.4709 -17.7599 -9.3926 -7.1250 0.0000 -0.0000 0.3017 9.9603 -0.2450 0.0000 -0.0000 0.0000 92.5819 -6.7694 -9.7998 -13.5793 22.1301 -2.6676 0.0000 0.0000 21.6297 -24.1918 -37.8346 15.4061 7.1250 -0.0000 -0.0000 15.3575 -69.8377 -9.1974
0.00 0.00 0.00 179.2300 0.2017 -165.6310 0.0000 0.0000 0.0000 -23.1802 -10.9600 -4.9072 2.5788 9.9798 28.9114 2.3343 -3.7121 -28.0097 10.5185 -17.6913 -61.2076 0.0000 0.0000 0.0000 16.7462 10.9179 -28.6748 -4.2738 -12.5161 37.5830 -2.1103 1.9717 -26.9533 -1.4389 7.5837 -21.4567 -7.6167 -2.0645 -4.7017 2.8594 -2.3992 0.4965 7.1033 -1.3731 3.6060 -3.2330 -1.2899 -8.2662 4.6832 -0.7451 24.9792 2.1839 0.4445 9.2181 -0.0000 0.0000 0.0000 -87.6378 -11.0353 45.7269 20.4903 -31.2286 -5.7834 -0.0000 -0.0000 18.7185 31.5963 -19.4990 -11.6027 -7.1250 0.0000 -0.0000 2.0870 7.4183 -1.8013 -0.0000 0.0000 0.0000 89.0433 -12.8583 -13.5168 -13.8078 22.4592 -2.7542 0.0000 0.0000 21.2234 -23.5634 -36.6867 14.6043 7.1250 -0.0000 -0.0000 14.8103 -68.5491 -8.4376
0.00 0.00 0.00 180.2760 1.5141 -166.2860 0.0000 0.0000 0.0000 -21.2988 -11.0540 -14.0360 7.1844 15.4852 49.5682 1.2730 -0.9678 -21.0392 10.2670 -17.5573 -60.3772 0.0000 0.0000 0.0000 19.2415 10.4032 -26.3993 -4.5922 -12.9093 39.0299 -2.4144 2.7936 -28.6964 -2.3082 9.4805 -27.3104 -6.2428 -1.3884 -3.7244 2.8782 -1.6181 0.9540 6.4147 -0.9570 3.3468 -3.6093 -1.0080 -7.9293 4.4769 -0.3433 24.0120 2.1876 0.5258 8.8011 -0.0000 0.0000 0.0000 -85.3124 -10.1787 42.4305 19.7736 -30.3686 -5.4164 -0.0000 -0.0000 18.6308 31.9244 -20.0807 -12.0745 -7.1250 0.0000 -0.0000 2.2093 6.6920 -1.9383 -0.0000 0.0000 0.0000 88.3843 -10.8350 -9.2094 -14.5568 23.5251 -3.0468 0.0000 0.0000 20.5944 -24.4289 -37.1854 15.3515 7.1250 -0.0000 -0.0000 14.2642 -69.2966 -8.3609
0.00 0.00 0.00 182.3520 4.7497 -168.1750 0.0000 0.0000 0.0000 -16.4611 -8.8064 -29.8573 14.5865 19.2824 73.9880 1.0663 2.0373 -20.3404 10.3051 -17.5779 -60.5033 0.0000 0.0000 0.0000 22.9058 9.6623 -22.3540 -5.5235 -13.9502 43.0382 -2.8973 6.5820 -30.9155 -1.9664 8.7957 -25.1583 -4.0267 0.6498 -0.6393 2.8867 0.9703 2.3670 5.2841 0.3982 2.6877 -3.9911 -0.8015 -7.6559 3.8932 -0.0780 22.0790 2.0288 0.4686 8.0836 0.0000 -0.0000 0.0000 -79.8134 -7.2418 35.3708 17.1554 -27.0622 -4.1578 -0.0000 -0.0000 20.6779 32.3731 -19.1825 -11.7668 -7.1250 0.0000 -0.0000 2.6261 7.6118 -2.2575 0.0000 -0.0000 0.0000 85.1379 -3.6778 5.3427 -17.2328 27.1636 -4.1931 0.0000 0.0000 16.5504 -27.0251 -36.3960 16.8390 7.1250 -0.0000 -0.0000 9.9368 -69.3530 -5.8152
0.00 0.00 0.00 185.3490 16.9389 -162.7520 0.0000 0.0000 0.0000 -1.9302 -7.5986 -49.3554 6.5312 14.9240 47.0779 0.6853 4.3208 -17.7990 6.8817 -15.2314 -48.4253 0.0000 0.0000 0.0000 22.9452 10.3027 -7.5072 -1.5051 -7.7486 21.9529 -0.6840 9.8046 -15.2748 -2.7822 10.3338 -30.0646 -3.4674 6.7800 0.8401 0.1831 9.0856 1.9653 2.0594 4.5153 0.9935 -3.4985 -0.5752 -9.8534 4.8371 -1.7204 18.0840 1.9702 -0.8684 7.2233 -0.0000 -0.0000 0.0000 -58.8902 14.8648 28.1777 15.0691 -24.2423 -3.2543 -0.0000 -0.0000 17.9670 35.0156 -16.7735 -11.4305 -7.1250 0.0000 -0.0000 4.6797 9.8285 -3.8253 -0.0000 -0.0000 0.0000 76.4614 19.8056 36.0105 -29.6657 40.6051 -11.1914 0.0000 0.0000 4.7138 -23.9020 -37.2651 15.0213 7.1250 -0.0000 -0.0000 15.0425 -69.2057 -8.7937
0.00 0.00 0.00 188.0810 19.7208 -159.0880 0.0000 0.0000 0.0000 4.4040 -8.9452 -44.3390 1.9373 8.7342 24.9673 0.0308 10.9874 -16.0876 0.2682 -3.3314 -9.2029 0.0000 0.0000 0.0000 20.6560 1.1764 -4.7147 -0.3118 -3.5895 9.9244 0.3382 10.2907 4.8254 -2.9734 10.6519 -31.1148 -3.1152 8.3552 -2.1162 -0.0622 11.2391 1.0113 1.9733 5.5762 1.6343 -3.1805 -1.0951 -9.9688 6.0697 -2.7197 17.7898 2.2248 -1.2197 7.2071 0.0000 -0.0000 0.0000 -53.3307 24.4075 31.7002 16.3568 -26.0021 -3.8010 -0.0000 -0.0000 11.0996 33.9165 -16.3084 -10.6922 -7.1250 0.0000 -0.0000 4.0367 10.5967 -3.2338 0.0000 -0.0000 0.0000 70.7828 23.9743 40.5615 -33.3840 43.6231 -13.6863 0.0000 -0.0000 -0.8045 -23.6852 -34.9270 14.0982 7.1250 -0.0000 -0.0000 12.8354 -66.8892 -6.8141
0.00 0.00 0.00 188.1300 20.7824 -159.2220 0.0000 0.0000 0.0000 7.6457 -15.7756 -35.7817 0.3178 3.6240 10.0211 2.6526 1.4300 -31.3600 2.2561 9.3804 26.9926 0.0000 0.0000 0.0000 16.2494 2.5909 -1.4442 -1.9617 -8.7858 25.1275 0.1051 -6.2689 -4.9737 -2.7904 10.3477 -30.1103 -4.2924 8.5797 -6.3679 0.0592 11.7743 1.0063 3.4272 5.7534 3.7004 -2.1514 -1.3890 -9.8214 6.3626 -3.7345 19.6132 2.0531 -1.6756 7.8195 -0.0000 0.0000 0.0000 -46.8027 34.0546 39.8818 17.6478 -27.7039 -4.3843 -0.0000 -0.0000 6.5772 33.0068 -17.6580 -11.1467 -7.1250 0.0000 -0.0000 3.2535 9.2201 -2.6946 -0.0000 0.0000 0.0000 65.9073 26.8098 41.3876 -34.3658 44.3539 -14.3681 0.0000 -0.0000 -1.4569 -20.4264 -33.9883 11.7606 7.1250 -0.0000 -0.0000 15.9018 -65.0467 -7.8001
0.00 0.00 0.00 186.8860 18.6027 -163.4450 0.0000 0.0000 0.0000 -0.9352 -9.9627 -36.0125 0.7269 5.4475 15.1895 1.4295 7.0179 -26.0925 2.1802 9.2318 26.5231 0.0000 0.0000 0.0000 9.4327 -0.4795 3.1747 -7.2486 -15.5377 49.8084 0.3435 -11.3002 0.7622 -0.7001 5.3483 -14.9047 -3.4814 7.9263 -6.5388 0.9004 10.8326 1.2575 3.8484 5.2844 4.1171 -2.4160 -1.7859 -9.0081 6.0381 -4.8162 22.4802 1.8817 -2.3649 8.6815 -0.0000 0.0000 0.0000 -39.8224 39.8496 49.2559 18.3738 -28.6332 -4.7270 -0.0000 -0.0000 6.5713 32.9322 -19.2338 -12.0450 -7.1250 0.0000 -0.0000 2.9731 7.4325 -2.5671 -0.0000 0.0000 0.0000 61.3209 23.0985 39.1017 -34.0692 44.1359 -14.1612 0.0000 -0.0000 -2.7792 -20.8863 -35.1163 12.3803 7.1250 -0.0000 -0.0000 16.4455 -66.2520 -8.5298
0.00 0.00 0.00 183.9290 12.6751 -169.6150 0.0000 0.0000 0.0000 -11.7222 -7.7552 -37.7624 2.8615 10.4673 30.5037 0.0587 6.4164 -10.5304 5.0845 -13.4783 -41.1863 0.0000 0.0000 0.0000 5.0159 -0.3280 11.0937 -14.5560 -19.2741 73.8956 0.1377 -20.7427 13.4798 -0.1850 2.7704 -7.6403 -3.9411 6.3297 -4.5902 2.4599 8.6783 2.4078 5.3729 4.1943 4.0947 -3.8630 -2.4723 -7.0239 5.8755 -5.8979 23.3264 1.9816 -3.1403 8.6866 0.0000 -0.0000 0.0000 -39.3390 38.3039 49.4118 17.8367 -27.9475 -4.4724 -0.0000 -0.0000 7.6302 33.0145 -19.4735 -12.2222 -7.1250 0.0000 -0.0000 2.9887 7.1412 -2.5976 0.0000 -0.0000 0.0000 56.6286 15.4569 32.7924 -30.8358 41.5991 -11.9606 0.0000 -0.0000 -1.7598 -18.3437 -42.5407 12.6354 7.1250 -0.0000 -0.0000 30.2347 -72.0179 -19.9479
0.00 0.00 0.00 182.5050 11.0921 -171.8020 0.0000 0.0000 0.0000 -14.4470 -8.6601 -36.5129 3.4291 11.3593 33.5013 0.1827 4.3467 -10.8574 6.9209 -15.2649 -48.5744 0.0000 0.0000 0.0000 4.8626 2.1685 11.5485 -18.5182 -19.9473 85.6639 -4.0836 25.1748 52.1751 -0.6940 5.3254 -14.8392 -5.2261 5.8291 -3.5206 2.9527 8.0802 3.2368 6.4885 3.8495 4.1915 -3.9754 -2.6448 -6.4478 5.5104 -6.0916 23.2643 1.8681 -3.2991 8.5612 -0.0000 -0.0000 0.0000 -42.0600 36.1968 45.7588 17.2921 -27.2413 -4.2202 -0.0000 -0.0000 9.4369 34.0770 -18.0944 -11.8652 -7.1250 0.0000 -0.0000 3.8747 8.4917 -3.2677 -0.0000 -0.0000 0.0000 55.9867 12.4613 29.1314 -29.2641 40.2542 -10.9310 0.0000 0.0000 0.0462 -20.5735 -39.8880 13.5340 7.1250 -0.0000 -0.0000 22.8499 -70.5342 -14.1693
0.00 0.00 0.00 180.9840 9.2844 -173.4480 0.0000 0.0000 0.0000 -17.0597 -9.9958 -35.3968 3.9318 12.0690 35.9767 0.3241 2.0575 -11.7066 7.1088 -15.4228 -49.2845 0.0000 0.0000 0.0000 4.7240 4.5835 10.7923 -18.7940 -19.9651 86.4720 -65.4606 61.7796 127.7564 -2.0786 9.0280 -25.8830 -6.2230 5.1467 -2.5751 2.9398 7.2157 3.8693 6.9388 3.3767 4.3370 -3.4242 -2.6260 -6.0801 5.1401 -6.1697 23.4855 1.6465 -3.3557 8.5454 -0.0000 0.0000 0.0000 -44.7147 34.2051 41.9964 17.0770 -26.9592 -4.1222 -0.0000 -0.0000 10.5079 35.0482 -17.0625 -11.6302 -7.1250 0.0000 -0.0000 4.6561 9.4829 -3.8384 -0.0000 0.0000 0.0000 56.5425 9.9332 25.4013 -27.1697 38.3405 -9.6042 0.0000 0.0000 2.1047 -20.4615 -41.1218 13.7871 7.1250 -0.0000 -0.0000 25.0323 -71.5683 -16.1368
